name Run_30002_IK.mot
datacolumns 164
datarows 4
range 0.51 0.54
endheader
time	         pelvis_tilt	         pelvis_list	     pelvis_rotation	           pelvis_tx	           pelvis_ty	           pelvis_tz	       hip_flexion_r	     hip_adduction_r	      hip_rotation_r	        knee_angle_r	       ankle_angle_r	       hip_flexion_l	     hip_adduction_l	      hip_rotation_l	        knee_angle_l	       ankle_angle_l	    lumbar_extension	      lumbar_bending	     lumbar_rotation	          arm_flex_r	           arm_add_r	           arm_rot_r	        elbow_flex_r	           pro_sup_r	          arm_flex_l	           arm_add_l	           arm_rot_l	        elbow_flex_l	           pro_sup_l	    subtalar_angle_r	         mtp_angle_r	    subtalar_angle_l	         mtp_angle_l	        wrist_flex_r	         wrist_dev_r	        wrist_flex_l	         wrist_dev_l	             LASI_tx	             LASI_ty	             LASI_tz	             RASI_tx	             RASI_ty	             RASI_tz	             LPSI_tx	             LPSI_ty	             LPSI_tz	             RPSI_tx	             RPSI_ty	             RPSI_tz	             RTH1_tx	             RTH1_ty	             RTH1_tz	             RTH2_tx	             RTH2_ty	             RTH2_tz	             RTH3_tx	             RTH3_ty	             RTH3_tz	             LTH1_tx	             LTH1_ty	             LTH1_tz	             LTH2_tx	             LTH2_ty	             LTH2_tz	             LTH3_tx	             LTH3_ty	             LTH3_tz	             RTB1_tx	             RTB1_ty	             RTB1_tz	             RTB2_tx	             RTB2_ty	             RTB2_tz	             RTB3_tx	             RTB3_ty	             RTB3_tz	             LTB1_tx	             LTB1_ty	             LTB1_tz	             LTB2_tx	             LTB2_ty	             LTB2_tz	             LTB3_tx	             LTB3_ty	             LTB3_tz	             RCAL_tx	             RCAL_ty	             RCAL_tz	             RTOE_tx	             RTOE_ty	             RTOE_tz	             RMT5_tx	             RMT5_ty	             RMT5_tz	             LCAL_tx	             LCAL_ty	             LCAL_tz	             LTOE_tx	             LTOE_ty	             LTOE_tz	             LMT5_tx	             LMT5_ty	             LMT5_tz	             LACR_tx	             LACR_ty	             LACR_tz	             RACR_tx	             RACR_ty	             RACR_tz	             CLAV_tx	             CLAV_ty	             CLAV_tz	               C7_tx	               C7_ty	               C7_tz	             RUA1_tx	             RUA1_ty	             RUA1_tz	             RUA2_tx	             RUA2_ty	             RUA2_tz	             RUA3_tx	             RUA3_ty	             RUA3_tz	             RLEL_tx	             RLEL_ty	             RLEL_tz	             RMEL_tx	             RMEL_ty	             RMEL_tz	             LUA1_tx	             LUA1_ty	             LUA1_tz	             LUA2_tx	             LUA2_ty	             LUA2_tz	             LUA3_tx	             LUA3_ty	             LUA3_tz	             LLEL_tx	             LLEL_ty	             LLEL_tz	             LMEL_tx	             LMEL_ty	             LMEL_tz	      RFAsuperior_tx	      RFAsuperior_ty	      RFAsuperior_tz	        RFAradius_tx	        RFAradius_ty	        RFAradius_tz	          RFAulna_tx	          RFAulna_ty	          RFAulna_tz	      LFAsuperior_tx	      LFAsuperior_ty	      LFAsuperior_tz	        LFAradius_tx	        LFAradius_ty	        LFAradius_tz	          LFAulna_tx	          LFAulna_ty	          LFAulna_tz	
0.51	        -13.51227032	         -0.87934039	         -5.53195355	          0.98454951	          1.04220967	         -0.34302495	         32.56270416	          6.74932466	          6.32874574	         -9.90145782	          5.01182283	         -1.04191259	          4.72112468	          1.27651925	        -44.06662612	        -16.07677326	          4.08720643	          3.86451520	         -3.91057693	        -47.32092747	        -18.03967899	        -16.19128723	        110.22837791	        107.93631407	        -32.67460027	        -14.96823858	         -6.52165883	        130.95728110	         99.28325360	          0.00000000	          0.00000000	          0.00000000	          0.00000000	          0.00000000	          0.00000000	          0.00000000	          0.00000000	          1.01220326	          1.07039314	         -0.46689488	          0.98961339	          1.08848548	         -0.22404691	          0.85273599	          1.14052772	         -0.42097106	          0.83625229	          1.13980812	         -0.30745807	          0.92706610	          0.97261036	         -0.16961562	          0.92023483	          0.81559205	         -0.19586573	          1.00539991	          0.68259491	         -0.20510162	          0.94352990	          0.93583857	         -0.51838668	          0.82194168	          0.81431226	         -0.48363584	          0.83330387	          0.66965410	         -0.46672317	          1.11945903	          0.45044512	         -0.27853314	          1.04765831	          0.39007936	         -0.21325494	          1.12178682	          0.26283050	         -0.29964528	          0.73600570	          0.45866936	         -0.40105405	          0.60269281	          0.46598021	         -0.46351426	          0.54182151	          0.35817984	         -0.40866090	          1.03179509	          0.10180352	         -0.30183276	          1.26279652	          0.16497851	         -0.34551636	          1.23795134	          0.10806142	         -0.25542782	          0.37836183	          0.40079105	         -0.41077081	          0.43405634	          0.17866980	         -0.34959125	          0.37978537	          0.18653652	         -0.44756847	          0.98590360	          1.57888141	         -0.49421569	          0.96335212	          1.55723532	         -0.17804351	          1.03314501	          1.52646565	         -0.30034596	          0.91404264	          1.59078957	         -0.34592775	          0.82322663	          1.50569520	         -0.14567446	          0.83787246	          1.44044595	         -0.10033363	          0.73996954	          1.39876301	         -0.08227452	          0.68462063	          1.35137770	         -0.06789824	          0.69749102	          1.32145787	         -0.15346551	          0.89478965	          1.49074957	         -0.56679342	          0.92522011	          1.41829251	         -0.59591164	          0.85509647	          1.35914811	         -0.63647847	          0.84148365	          1.29195642	         -0.66021738	          0.80790878	          1.26746662	         -0.57739764	          0.75796849	          1.27210463	         -0.05134653	          0.91085165	          1.19408001	         -0.11083925	          0.86883859	          1.15402243	         -0.07379937	          0.91249234	          1.25491838	         -0.63545589	          1.04926190	          1.29426861	         -0.51261467	          1.06196798	          1.22598589	         -0.53615912	
0.52	        -13.18752863	         -1.16870514	         -5.56285303	          0.98397339	          1.03713845	         -0.34315068	         32.18821439	          7.27816251	          5.86403884	        -10.77237481	          5.20925174	          0.77373220	          4.16201366	          0.73562708	        -49.97292679	        -14.86515108	          3.51058315	          4.32569260	         -3.42894877	        -46.46868634	        -18.31279664	        -15.98715143	        110.28002636	        107.76879422	        -32.56110060	        -14.99625941	         -6.17411488	        129.61970857	        100.19502563	          0.00000000	          0.00000000	          0.00000000	          0.00000000	          0.00000000	          0.00000000	          0.00000000	          0.00000000	          1.01128120	          1.06500633	         -0.46791094	          0.98882687	          1.08410531	         -0.22404039	          0.85182248	          1.13426801	         -0.42138046	          0.83518714	          1.13409294	         -0.30791023	          0.92519796	          0.96679398	         -0.16934804	          0.91947050	          0.80963155	         -0.19600093	          1.00565849	          0.67705816	         -0.20695003	          0.94560336	          0.93014982	         -0.51801965	          0.82771029	          0.80507379	         -0.48404692	          0.84301740	          0.66115452	         -0.46721638	          1.11673622	          0.44375803	         -0.28142117	          1.04419241	          0.38398171	         -0.21617531	          1.11639172	          0.25613910	         -0.30315815	          0.74556518	          0.45261187	         -0.40313187	          0.61245499	          0.46941479	         -0.46447469	          0.54530877	          0.36450273	         -0.41271130	          1.02413529	          0.09649448	         -0.30660245	          1.25590953	          0.15786716	         -0.34931372	          1.23001296	          0.09921557	         -0.26031264	          0.38378716	          0.41689744	         -0.41460323	          0.42918850	          0.19154728	         -0.35688738	          0.37521666	          0.20353576	         -0.45458669	          0.98506849	          1.57410016	         -0.49342495	          0.96457422	          1.55080709	         -0.17741033	          1.03328633	          1.52049359	         -0.30021111	          0.91403477	          1.58558383	         -0.34482736	          0.82536106	          1.49811968	         -0.14226068	          0.84083974	          1.43232323	         -0.09846898	          0.74371216	          1.38956499	         -0.07909740	          0.68892357	          1.34172703	         -0.06433899	          0.70103279	          1.31215080	         -0.14994697	          0.89332988	          1.48632739	         -0.56580661	          0.92334695	          1.41390061	         -0.59531524	          0.85322721	          1.35492044	         -0.63570765	          0.83947662	          1.28770041	         -0.65927909	          0.80568135	          1.26355431	         -0.57662692	          0.76345068	          1.26341796	         -0.04884834	          0.91650323	          1.18722467	         -0.11026481	          0.87530400	          1.14653442	         -0.07284903	          0.90968805	          1.24858637	         -0.63546116	          1.04795243	          1.28286333	         -0.51226435	          1.05905277	          1.21508145	         -0.53780980	
0.53	        -13.01777180	         -1.38051543	         -5.47226291	          0.98296875	          1.03079297	         -0.34347169	         32.08083502	          7.63609330	          5.09015926	        -12.36171528	          4.37351153	          2.98335761	          3.51778925	          0.12879833	        -55.97177140	        -13.96949188	          3.10606747	          4.69312637	         -3.04128153	        -45.44453426	        -18.68610280	        -15.66800214	        110.21732357	        107.57055700	        -32.48657423	        -14.98466939	         -5.90045425	        128.16689742	        101.21080241	          0.00000000	          0.00000000	          0.00000000	          0.00000000	          0.00000000	          0.00000000	          0.00000000	          0.00000000	          1.00975096	          1.05854845	         -0.46890875	          0.98797631	          1.07822017	         -0.22413467	          0.85059937	          1.12728896	         -0.42144685	          0.83415063	          1.12708103	         -0.30814336	          0.92280863	          0.95976900	         -0.16907756	          0.91847436	          0.80245902	         -0.19768024	          1.00550791	          0.67075341	         -0.20922569	          0.94696489	          0.92419788	         -0.51815310	          0.83343352	          0.79512406	         -0.48459204	          0.85313300	          0.65210061	         -0.46908950	          1.11265072	          0.43515543	         -0.28334745	          1.03853112	          0.37668925	         -0.21866295	          1.10829229	          0.24756421	         -0.30555027	          0.75668170	          0.44620200	         -0.40554427	          0.62463004	          0.47152191	         -0.46589644	          0.55157329	          0.37001389	         -0.41644715	          1.01178176	          0.09292112	         -0.31042808	          1.24491979	          0.14484144	         -0.35332196	          1.21668399	          0.08601930	         -0.26459410	          0.39287948	          0.43199397	         -0.41699270	          0.42715666	          0.20336307	         -0.36472413	          0.37377982	          0.22046980	         -0.46193393	          0.98390557	          1.56816467	         -0.49268669	          0.96569579	          1.54334618	         -0.17686179	          1.03336160	          1.51353479	         -0.30017249	          0.91385152	          1.57932629	         -0.34395216	          0.82756137	          1.48921599	         -0.13852697	          0.84418272	          1.42294631	         -0.09630567	          0.74798941	          1.37882825	         -0.07541691	          0.69389122	          1.33046048	         -0.06016405	          0.70509285	          1.30129484	         -0.14579806	          0.89156513	          1.48081170	         -0.56479998	          0.92123361	          1.40829053	         -0.59452951	          0.85100596	          1.34954440	         -0.63472679	          0.83688258	          1.28242058	         -0.65806928	          0.80287690	          1.25852814	         -0.57556312	          0.76960499	          1.25310788	         -0.04582318	          0.92275669	          1.17897918	         -0.10953850	          0.88253441	          1.13763685	         -0.07167558	          0.90618649	          1.24112108	         -0.63537753	          1.04616898	          1.26977089	         -0.51214661	          1.05547609	          1.20265898	         -0.53991234	
0.54	        -12.98439151	         -1.48359064	         -5.27647869	          0.98172478	          1.02328794	         -0.34410904	         32.25529621	          7.77170204	          3.84059989	        -14.74972540	          2.67739141	          5.48129573	          2.86378285	         -0.44611147	        -61.85931250	        -13.10711528	          2.88743635	          4.94639937	         -2.71084108	        -44.29043684	        -19.15135884	        -15.26915890	        110.01835857	        107.32857660	        -32.43400223	        -14.94572325	         -5.64326341	        126.56875960	        102.27887471	          0.00000000	          0.00000000	          0.00000000	          0.00000000	          0.00000000	          0.00000000	          0.00000000	          0.00000000	          1.00796276	          1.05139995	         -0.46985242	          0.98715288	          1.07046873	         -0.22487239	          0.84921422	          1.11971837	         -0.42138254	          0.83319504	          1.11886045	         -0.30820055	          0.92064564	          0.95157741	         -0.16939997	          0.91671243	          0.79432168	         -0.20046194	          1.00453931	          0.66340472	         -0.21121574	          0.94782622	          0.91791887	         -0.51866238	          0.83914107	          0.78468183	         -0.48510876	          0.86382189	          0.64261272	         -0.47202090	          1.10745143	          0.42493418	         -0.28446623	          1.03097066	          0.36840138	         -0.22093640	          1.09737644	          0.23749948	         -0.30777709	          0.76919158	          0.43948720	         -0.40881994	          0.63867113	          0.47254390	         -0.46802083	          0.56028030	          0.37462255	         -0.42005497	          0.99446478	          0.09190270	         -0.31437691	          1.22967087	          0.12568599	         -0.35736124	          1.19759284	          0.07066514	         -0.26734862	          0.40473500	          0.44541088	         -0.41798411	          0.42859303	          0.21385756	         -0.37286183	          0.37608296	          0.23657063	         -0.46943334	          0.98235762	          1.56098714	         -0.49212951	          0.96676502	          1.53488155	         -0.17628113	          1.03341189	          1.50567593	         -0.30014434	          0.91343592	          1.57198616	         -0.34325235	          0.82980735	          1.47904040	         -0.13463281	          0.84791516	          1.41240242	         -0.09388005	          0.75280105	          1.36671179	         -0.07131016	          0.69958562	          1.31773714	         -0.05537316	          0.70974743	          1.28899219	         -0.14107312	          0.88934465	          1.47412610	         -0.56366067	          0.91885771	          1.40140096	         -0.59361210	          0.84840122	          1.34298309	         -0.63348043	          0.83366359	          1.27614139	         -0.65669900	          0.79979327	          1.25232976	         -0.57446921	          0.77646315	          1.24128878	         -0.04232246	          0.92957659	          1.16939802	         -0.10866337	          0.89048186	          1.12738766	         -0.07031504	          0.90197734	          1.23253752	         -0.63530653	          1.04377218	          1.25512193	         -0.51233923	          1.05113534	          1.18880984	         -0.54239948	
